<svg width="22" height="22" viewBox="0 0 22 22" fill="none" xmlns="http://www.w3.org/2000/svg">
<path d="M11 1.57129C11.8063 1.57129 12.5818 1.8812 13.166 2.43693C13.7503 2.99266 14.0986 3.75168 14.1389 4.557L14.1428 4.71415H18.0714C18.2717 4.71437 18.4643 4.79105 18.6099 4.92853C18.7555 5.066 18.8431 5.25389 18.8549 5.45381C18.8666 5.65373 18.8016 5.85059 18.673 6.00416C18.5445 6.15773 18.3622 6.25642 18.1633 6.28007L18.0714 6.28557H17.4043L16.4772 17.7201C16.4174 18.4579 16.082 19.1462 15.5378 19.648C14.9936 20.1499 14.2804 20.4285 13.5402 20.4284H8.45975C7.71949 20.4285 7.00633 20.1499 6.46213 19.648C5.91792 19.1462 5.58256 18.4579 5.52275 17.7201L4.59482 6.28557H3.92854C3.73609 6.28555 3.55034 6.21489 3.40653 6.08701C3.26272 5.95913 3.17084 5.78291 3.14832 5.59179L3.14282 5.49986C3.14285 5.30741 3.2135 5.12167 3.34138 4.97785C3.46927 4.83404 3.64548 4.74216 3.83661 4.71965L3.92854 4.71415H7.85711C7.85711 3.88061 8.18823 3.08121 8.77763 2.49181C9.36703 1.90241 10.1664 1.57129 11 1.57129ZM9.23211 8.83915C9.08971 8.83915 8.95213 8.89072 8.84481 8.98432C8.73749 9.07792 8.66769 9.20721 8.64832 9.34829L8.64282 9.42843V15.7141L8.64832 15.7943C8.66773 15.9353 8.73754 16.0646 8.84486 16.1581C8.95217 16.2517 9.08973 16.3032 9.23211 16.3032C9.37448 16.3032 9.51204 16.2517 9.61936 16.1581C9.72667 16.0646 9.79649 15.9353 9.81589 15.7943L9.82139 15.7141V9.42843L9.81589 9.34829C9.79653 9.20721 9.72673 9.07792 9.61941 8.98432C9.51209 8.89072 9.37451 8.83915 9.23211 8.83915ZM12.7678 8.83915C12.6254 8.83915 12.4878 8.89072 12.3805 8.98432C12.2732 9.07792 12.2034 9.20721 12.184 9.34829L12.1785 9.42843V15.7141L12.184 15.7943C12.2034 15.9353 12.2733 16.0646 12.3806 16.1581C12.4879 16.2517 12.6254 16.3032 12.7678 16.3032C12.9102 16.3032 13.0478 16.2517 13.1551 16.1581C13.2624 16.0646 13.3322 15.9353 13.3516 15.7943L13.3571 15.7141V9.42843L13.3516 9.34829C13.3322 9.20721 13.2624 9.07792 13.1551 8.98432C13.0478 8.89072 12.9102 8.83915 12.7678 8.83915ZM11 3.14272C10.6035 3.14259 10.2217 3.29232 9.93096 3.56189C9.64026 3.83146 9.4622 4.20095 9.43247 4.59629L9.42854 4.71415H12.5714L12.5675 4.59629C12.5377 4.20095 12.3597 3.83146 12.069 3.56189C11.7783 3.29232 11.3964 3.14259 11 3.14272Z" fill="#FF0202"/>
</svg>
